<?xml version="1.0" encoding="utf-8"?>
<!-- Generated by IcoMoon.io -->
<svg version="1.1" xmlns="http://www.w3.org/2000/svg" xmlns:xlink="http://www.w3.org/1999/xlink" width="752" height="32" viewBox="0 0 752 32">
<svg id="icon-close" width="32" height="32" viewBox="0 0 32 32" x="0" y="0">
<path fill="none" stroke-linejoin="round" stroke-linecap="square" stroke-miterlimit="4" stroke-width="3" stroke="#000" d="M28 4l-24 24M4 4l24 24"></path>
</svg>
<svg id="icon-exit" width="29" height="32" viewBox="0 0 29 32" x="48" y="0">
<path fill="#475569" d="M9.875 30.281v0zM8.956 29.222v0zM27.408 29.222v0zM26.489 30.281v0zM26.489 1.719v0zM27.408 2.778v0zM8.956 2.778v0zM9.875 1.719v0zM18.538 16.548l-0.64-0.682 0.64 0.684zM18.538 15.452v0zM18.884 16.15v0zM18.884 15.85v0zM9.663 7.516v-2.182h-1.871v2.182h1.871zM12.087 2.39h12.186v-1.871h-12.186v1.871zM26.7 5.334v21.332h1.871v-21.332h-1.871zM24.273 29.61h-12.186v1.871h12.186v-1.871zM9.663 26.666v-2.182h-1.871v2.182h1.871zM12.089 29.61c-0.607 0-0.996 0-1.292-0.029-0.281-0.026-0.388-0.071-0.449-0.106l-0.947 1.612c0.39 0.23 0.8 0.317 1.222 0.356 0.403 0.038 0.896 0.038 1.466 0.038v-1.871zM7.792 26.666c0 0.666 0 1.215 0.031 1.658 0.032 0.454 0.102 0.874 0.278 1.276l1.712-0.756c-0.052-0.116-0.099-0.295-0.124-0.65-0.026-0.364-0.026-0.835-0.026-1.527h-1.871zM10.348 29.475c-0.238-0.15-0.423-0.366-0.532-0.622l-0.003-0.009-1.712 0.756c0.273 0.618 0.721 1.146 1.3 1.487l0.947-1.612zM26.701 26.668c0 0.691 0 1.162-0.026 1.526-0.025 0.355-0.071 0.532-0.122 0.65l1.711 0.756c0.176-0.401 0.244-0.823 0.276-1.276 0.032-0.444 0.032-0.992 0.032-1.658h-1.871zM24.275 31.481c0.57 0 1.062 0 1.468-0.038 0.42-0.039 0.831-0.127 1.222-0.356l-0.948-1.612c-0.061 0.035-0.169 0.080-0.449 0.106-0.297 0.029-0.685 0.029-1.292 0.029v1.871zM26.553 28.844c-0.113 0.265-0.299 0.481-0.532 0.628l-0.006 0.003 0.948 1.612c0.579-0.34 1.027-0.868 1.3-1.487l-1.712-0.756zM24.275 2.39c0.607 0 0.995 0 1.292 0.029 0.281 0.026 0.388 0.071 0.448 0.106l0.948-1.613c-0.39-0.228-0.8-0.316-1.222-0.355-0.403-0.039-0.896-0.038-1.466-0.038v1.871zM28.572 5.334c0-0.666 0-1.213-0.031-1.658-0.033-0.454-0.102-0.874-0.278-1.276l-1.712 0.756c0.052 0.116 0.099 0.295 0.124 0.65 0.026 0.364 0.026 0.835 0.026 1.527h1.871zM26.015 2.525c0.212 0.124 0.407 0.337 0.538 0.631l1.711-0.756c-0.275-0.628-0.724-1.138-1.286-1.48l-0.014-0.008-0.947 1.613zM9.663 5.332c0-0.691 0-1.162 0.026-1.526 0.025-0.355 0.071-0.532 0.124-0.65l-1.712-0.756c-0.176 0.401-0.246 0.822-0.276 1.276-0.032 0.444-0.032 0.992-0.032 1.658h1.871zM12.087 0.521c-0.57 0-1.062 0-1.468 0.038-0.42 0.039-0.831 0.127-1.222 0.355l0.948 1.613c0.061-0.035 0.169-0.080 0.449-0.106 0.295-0.029 0.685-0.029 1.292-0.029v-1.872zM9.812 3.156c0.112-0.265 0.297-0.481 0.53-0.628l0.006-0.003-0.947-1.613c-0.576 0.35-1.025 0.86-1.292 1.467l-0.008 0.021 1.712 0.756zM15.111 21.046l4.067-3.815-1.28-1.364-4.067 3.815 1.28 1.364zM19.178 14.769l-4.067-3.815-1.28 1.364 4.067 3.815 1.28-1.364zM19.178 17.231c0.092-0.086 0.201-0.188 0.288-0.285 0.129-0.137 0.231-0.3 0.298-0.48l0.003-0.010-1.767-0.611c0.039-0.116 0.099-0.173 0.080-0.153-0.057 0.056-0.116 0.113-0.176 0.169l-0.006 0.005 1.28 1.364zM17.898 16.134c0.066 0.061 0.125 0.118 0.183 0.176l-0.001-0.001c0.019 0.020-0.039-0.038-0.080-0.153l1.767-0.611c-0.070-0.19-0.172-0.353-0.302-0.491l0.001 0.001c-0.087-0.097-0.196-0.199-0.288-0.285l-1.28 1.364zM19.767 16.455c0.049-0.136 0.077-0.292 0.077-0.455s-0.028-0.32-0.080-0.465l0.003 0.010-1.767 0.611c-0.017-0.046-0.026-0.1-0.026-0.156s0.010-0.109 0.027-0.159l-0.001 0.003 1.767 0.611zM18.607 15.065h-18.607v1.871h18.607v-1.871z"></path>
</svg>
<svg id="icon-upload" width="32" height="32" viewBox="0 0 32 32" x="96" y="0">
<path fill="none" stroke="#94a3b8" stroke-linejoin="round" stroke-linecap="square" stroke-miterlimit="4" stroke-width="2.4" d="M10.75 10.25l5.25-5.25 5.25 5.25"></path>
<path fill="#94a3b8" d="M14.8 19v1.2h2.4v-1.2h-2.4zM17.2 5c0-0.663-0.537-1.2-1.2-1.2s-1.2 0.537-1.2 1.2v0h2.4zM17.2 19v-14h-2.4v14h2.4z"></path>
<path fill="none" stroke="#94a3b8" stroke-linejoin="round" stroke-linecap="square" stroke-miterlimit="4" stroke-width="2.4" d="M27 19v7c0 0 0 0.001 0 0.002 0 0.551-0.447 0.998-0.998 0.998-0.001 0-0.001 0-0.002 0h-20c-0.552 0-1-0.448-1-1v0-7"></path>
</svg>
<svg id="icon-checkInCircle" width="32" height="32" viewBox="0 0 32 32" x="144" y="0">
<path fill="none" stroke="#2eba77" stroke-linejoin="round" stroke-linecap="round" stroke-miterlimit="4" stroke-width="2.4615" d="M11.385 16l3.077 3.077 6.154-6.154M29.846 16c0 7.647-6.199 13.846-13.846 13.846s-13.846-6.199-13.846-13.846 6.199-13.846 13.846-13.846 13.846 6.199 13.846 13.846z"></path>
</svg>
<svg id="icon-check" width="38" height="32" viewBox="0 0 38 32" x="192" y="0">
<path fill="none" stroke-linejoin="round" stroke-linecap="round" stroke-miterlimit="4" stroke-width="6.4" stroke="#000" d="M4.266 18.134l8.534 8.534 21.334-21.334"></path>
</svg>
<svg id="icon-geo" width="32" height="32" viewBox="0 0 32 32" x="240" y="0">
<path d="M30.498 9.6l0.877 0.148v-0.001l-0.877-0.147zM24.503 17.919l-0.481-0.747-0.012 0.006-0.009 0.008 0.503 0.732zM23.628 18.19v0zM22.753 17.918l-0.52 0.722 0.017 0.012 0.504-0.732zM16.614 7.974v0zM23.95 0.946l-0.037 0.888h0.014l0.024-0.889zM29.483 16.642c0 7.364-5.97 13.333-13.333 13.333v1.778c8.346 0 15.111-6.766 15.111-15.111h-1.778zM16.149 29.976c-7.364 0-13.333-5.97-13.333-13.333h-1.778c0 8.345 6.765 15.111 15.111 15.111v-1.778zM2.816 16.642c0-7.365 5.97-13.333 13.333-13.333v-1.778c-8.346 0-15.111 6.765-15.111 15.111h1.778zM16.147 29.976c-0.583 0-1.207-0.263-1.848-0.873-0.645-0.614-1.268-1.545-1.809-2.765-1.083-2.436-1.775-5.862-1.775-9.695h-1.778c0 4.021 0.723 7.706 1.928 10.418 0.602 1.355 1.342 2.505 2.208 3.33 0.871 0.83 1.912 1.363 3.073 1.363v-1.778zM10.715 16.642c0-3.833 0.692-7.26 1.775-9.696 0.542-1.218 1.164-2.15 1.809-2.765 0.642-0.61 1.265-0.872 1.849-0.872v-1.778c-1.163 0-2.203 0.533-3.074 1.363-0.865 0.824-1.606 1.976-2.208 3.33-1.207 2.712-1.929 6.395-1.929 10.418h1.778zM21.427 19.713c-0.311 3.085-1.076 5.727-2.088 7.567-1.038 1.888-2.188 2.695-3.192 2.695v1.778c2.005 0 3.618-1.557 4.75-3.617 1.158-2.106 1.971-4.997 2.299-8.244l-1.769-0.178zM2.015 17.531h14.18v-1.778h-14.18v1.778zM29.621 9.453c-0.681 4.045-3.954 6.657-5.6 7.718l0.964 1.495c1.751-1.128 5.579-4.102 6.391-8.917l-1.754-0.296zM24 17.185c-0.104 0.072-0.232 0.115-0.371 0.115-0 0-0.001 0-0.001 0h0v1.778c0.492 0 0.972-0.149 1.378-0.428l-1.007-1.465zM23.628 17.3c-0.139-0-0.267-0.043-0.373-0.116l0.002 0.001-1.007 1.465c0.407 0.279 0.887 0.427 1.378 0.427v-1.778zM23.272 17.196c-0.895-0.645-2.355-1.837-3.584-3.444-1.231-1.608-2.184-3.571-2.184-5.779h-1.778c0 2.733 1.179 5.068 2.549 6.859 1.372 1.793 2.981 3.102 3.959 3.807l1.039-1.441zM17.505 7.975c0-0.83 0.168-1.65 0.494-2.412l-1.636-0.699c-0.402 0.917-0.636 1.986-0.636 3.11v0l1.778 0.001zM17.999 5.563c0.343-0.791 0.816-1.464 1.399-2.023l0.002-0.002-1.231-1.285c-0.754 0.724-1.364 1.591-1.786 2.56l-0.020 0.051 1.636 0.698zM19.4 3.538c0.581-0.557 1.273-1.003 2.040-1.299l0.042-0.014-0.628-1.663c-1.043 0.4-1.936 0.974-2.687 1.695l0.003-0.003 1.23 1.284zM21.483 2.225c0.645-0.251 1.392-0.397 2.173-0.397 0.091 0 0.182 0.002 0.272 0.006l-0.013-0 0.073-1.775c-0.1-0.004-0.217-0.007-0.334-0.007-1.006 0-1.968 0.187-2.854 0.529l0.054-0.018 0.628 1.663zM23.929 1.835c3.671 0.096 6.338 3.757 5.694 7.621l1.754 0.293c0.788-4.73-2.458-9.561-7.401-9.69l-0.047 1.777z"></path>
</svg>
<svg id="icon-diagonalLines" width="14" height="32" viewBox="0 0 14 32" x="288" y="0">
<path fill="none" stroke="#fff" stroke-linejoin="miter" stroke-linecap="butt" stroke-miterlimit="4" stroke-width="1.6" d="M1.156 8.934l12-8M1.156 14.534l12-8M1.156 20.134l12-8M1.156 25.734l12-8M1.156 31.334l12-8"></path>
</svg>
<svg id="icon-npshoping" width="171" height="32" viewBox="0 0 171 32" x="336" y="0">
<path fill="#da291c" d="M18.586 25.661v-6.389h-5.473v6.389h-4.186l5.076 5.037c0.474 0.469 1.126 0.759 1.846 0.759s1.372-0.29 1.846-0.759l-0 0 5.076-5.037h-4.184zM6.191 22.946v-13.739l-5.076 5.037c-0.472 0.467-0.765 1.115-0.765 1.831s0.293 1.364 0.765 1.831l0 0 5.076 5.037zM13.113 6.493v6.389h5.473v-6.389h4.185l-5.076-5.037c-0.474-0.469-1.126-0.759-1.846-0.759s-1.372 0.29-1.846 0.759l0-0-5.076 5.037h4.184zM30.583 14.246l-5.076-5.037v13.738l5.076-5.038c0.472-0.467 0.765-1.115 0.765-1.831s-0.293-1.364-0.765-1.831l-0-0zM46.569 25.662c-4.807 0-8.011-2.167-8.86-5.984h4.572c0.565 1.461 2.026 2.215 4.382 2.215 2.403 0 3.864-0.849 3.864-1.98 0-1.366-1.131-1.837-4.618-2.215-5.184-0.565-7.587-2.545-7.587-5.843 0-3.346 3.252-5.608 7.965-5.608 4.806 0 8.057 2.262 8.67 5.796h-4.9c-0.519-1.225-1.885-1.932-3.818-1.932-2.355 0-3.581 0.706-3.581 1.837 0 1.225 1.131 1.696 4.288 1.98 5.373 0.519 8.011 2.403 8.011 5.89 0 3.534-3.487 5.843-8.387 5.843zM58.001 25.379v-19.32h3.958v6.644h0.284c0.895-1.036 2.45-1.696 3.911-1.696 3.487 0 5.749 2.45 5.749 6.173v8.2h-4.006v-7.351c0-2.073-1.084-3.252-2.874-3.252-1.743 0-3.063 1.415-3.063 3.252v7.351h-3.958zM82.204 25.662c-4.382 0-7.634-3.157-7.634-7.351 0-4.193 3.252-7.351 7.634-7.351 4.383 0 7.681 3.158 7.681 7.351 0 4.194-3.299 7.351-7.68 7.351zM78.575 18.311c0 2.027 1.602 3.582 3.628 3.534 2.027 0.047 3.628-1.507 3.628-3.534 0-2.026-1.601-3.581-3.628-3.581-2.026 0-3.628 1.555-3.628 3.581zM92.876 30.563v-19.321h3.77v1.461h0.282c0.99-1.036 2.592-1.696 4.147-1.696 3.958 0 6.739 3.111 6.739 7.305 0 4.193-2.781 7.304-6.739 7.304-1.461 0-3.016-0.66-3.958-1.65h-0.284v6.598h-3.957zM96.694 18.311c0 2.121 1.554 3.676 3.533 3.676 2.026 0 3.582-1.602 3.582-3.674 0-2.074-1.556-3.677-3.582-3.677-1.98 0-3.534 1.556-3.534 3.676zM110.793 30.563v-19.321h3.769v1.461h0.282c0.99-1.036 2.592-1.696 4.147-1.696 3.959 0 6.739 3.111 6.739 7.305 0 4.193-2.78 7.304-6.739 7.304-1.46 0-3.016-0.66-3.958-1.65h-0.282v6.598h-3.958zM114.61 18.311c0 2.121 1.555 3.676 3.534 3.676 2.026 0 3.581-1.602 3.581-3.674 0-2.074-1.555-3.677-3.581-3.677-1.98 0-3.534 1.556-3.534 3.676zM128.708 25.379v-14.136h3.959v14.136h-3.959zM128.662 8.839v-3.674h4.052v3.674h-4.052zM136.746 25.379v-14.136h3.769v1.46h0.282c0.942-0.989 2.498-1.696 4.053-1.696 3.582 0 5.796 2.356 5.796 6.173v8.2h-4.006v-7.445c0-2.215-0.99-3.252-2.733-3.252s-3.204 1.461-3.204 3.252v7.445h-3.958zM155.059 30.563v-3.487h8.435c0.519 0 0.801-0.284 0.801-0.802v-2.874h-0.282c-0.99 0.943-2.498 1.602-3.959 1.602-4.006 0-6.738-3.016-6.738-7.021 0-3.911 2.732-6.974 6.738-6.974 1.556 0 3.158 0.66 4.147 1.696h0.284v-1.459h3.769v15.832c0 2.121-1.366 3.487-3.487 3.487h-9.707zM157.32 18.123c0 1.978 1.556 3.533 3.582 3.533 1.98 0 3.534-1.507 3.534-3.534 0-1.931-1.555-3.487-3.534-3.487-2.026 0-3.582 1.556-3.582 3.487z"></path>
</svg>
</svg>
