<?xml version="1.0" encoding="utf-8"?>
<!-- Generated by IcoMoon.io -->
<svg version="1.1" xmlns="http://www.w3.org/2000/svg" xmlns:xlink="http://www.w3.org/1999/xlink" width="752" height="32" viewBox="0 0 752 32">
<svg id="icon-globePin" width="32" height="32" viewBox="0 0 32 32" x="0" y="0">
<path d="M26.429 11.644l0.658 0.111v-0.001l-0.658-0.109zM21.932 17.884l-0.361-0.56-0.009 0.004-0.007 0.006 0.377 0.549zM21.276 18.087v0zM20.62 17.883l-0.39 0.541 0.012 0.009 0.378-0.549zM16.016 10.425v0zM21.518 5.154l-0.028 0.666h0.011l0.018-0.667zM25.668 16.926c0 5.523-4.477 10-10 10v1.333c6.26 0 11.333-5.075 11.333-11.333h-1.333zM15.668 26.926c-5.523 0-10-4.477-10-10h-1.333c0 6.259 5.074 11.333 11.333 11.333v-1.333zM5.668 16.926c0-5.524 4.477-10 10-10v-1.333c-6.26 0-11.333 5.074-11.333 11.333h1.333zM15.666 26.926c-0.437 0-0.904-0.197-1.386-0.655-0.484-0.46-0.951-1.159-1.357-2.074-0.812-1.827-1.331-4.396-1.331-7.271h-1.333c0 3.016 0.542 5.78 1.446 7.813 0.452 1.016 1.006 1.879 1.656 2.498 0.653 0.622 1.434 1.022 2.305 1.022v-1.333zM11.592 16.926c0-2.875 0.519-5.445 1.332-7.272 0.406-0.914 0.873-1.612 1.356-2.074 0.481-0.458 0.948-0.654 1.387-0.654v-1.333c-0.872 0-1.652 0.4-2.306 1.022-0.649 0.618-1.204 1.482-1.656 2.498-0.904 2.034-1.446 4.796-1.446 7.813h1.333zM19.626 19.229c-0.233 2.314-0.807 4.295-1.566 5.676-0.779 1.416-1.641 2.021-2.394 2.021v1.333c1.504 0 2.714-1.168 3.563-2.713 0.868-1.58 1.478-3.748 1.724-6.183l-1.327-0.133zM5.067 17.593h10.635v-1.333h-10.635v1.333zM25.772 11.534c-0.511 3.034-2.965 4.993-4.2 5.788l0.723 1.121c1.313-0.846 4.184-3.076 4.793-6.688l-1.316-0.222zM21.556 17.333c-0.078 0.054-0.174 0.086-0.278 0.086-0 0-0.001 0-0.001 0h0v1.333c0.369 0 0.729-0.112 1.034-0.321l-0.756-1.099zM21.276 17.42c-0.104-0-0.2-0.032-0.28-0.087l0.002 0.001-0.756 1.099c0.305 0.209 0.665 0.32 1.034 0.32v-1.333zM21.010 17.342c-0.671-0.485-1.766-1.38-2.688-2.584-0.924-1.206-1.638-2.678-1.638-4.334h-1.333c0 2.050 0.884 3.801 1.912 5.144 1.029 1.345 2.236 2.326 2.969 2.855l0.78-1.081zM16.684 10.424c0-0.622 0.126-1.237 0.371-1.809l-1.227-0.524c-0.302 0.688-0.478 1.49-0.478 2.332v0l1.333 0.001zM17.054 8.615c0.257-0.593 0.612-1.098 1.049-1.518l0.002-0.002-0.923-0.962c-0.566 0.543-1.023 1.194-1.34 1.92l-0.015 0.038 1.227 0.524zM18.105 7.096c0.436-0.418 0.955-0.752 1.53-0.974l0.032-0.011-0.471-1.247c-0.782 0.3-1.452 0.731-2.015 1.271l0.002-0.002 0.923 0.963zM19.667 6.111c0.484-0.188 1.044-0.297 1.63-0.297 0.068 0 0.136 0.002 0.204 0.004l-0.010-0 0.056-1.332c-0.075-0.003-0.162-0.005-0.251-0.005-0.755 0-1.476 0.141-2.14 0.397l0.041-0.014 0.471 1.247zM21.501 5.819c2.753 0.072 4.754 2.818 4.27 5.716l1.316 0.22c0.591-3.548-1.844-7.171-5.551-7.268l-0.036 1.332zM19.93 8.444h2.667v2.667h-2.667z"></path>
</svg>
<svg id="icon-close" width="32" height="32" viewBox="0 0 32 32" x="48" y="0">
<path fill="none" stroke-linejoin="round" stroke-linecap="square" stroke-miterlimit="4" stroke-width="3" stroke="#000" d="M28 4l-24 24M4 4l24 24"></path>
</svg>
<svg id="icon-exit" width="29" height="32" viewBox="0 0 29 32" x="96" y="0">
<path fill="#475569" d="M9.875 30.281v0zM8.956 29.222v0zM27.408 29.222v0zM26.489 30.281v0zM26.489 1.719v0zM27.408 2.778v0zM8.956 2.778v0zM9.875 1.719v0zM18.538 16.548l-0.64-0.682 0.64 0.684zM18.538 15.452v0zM18.884 16.15v0zM18.884 15.85v0zM9.663 7.516v-2.182h-1.871v2.182h1.871zM12.087 2.39h12.186v-1.871h-12.186v1.871zM26.7 5.334v21.332h1.871v-21.332h-1.871zM24.273 29.61h-12.186v1.871h12.186v-1.871zM9.663 26.666v-2.182h-1.871v2.182h1.871zM12.089 29.61c-0.607 0-0.996 0-1.292-0.029-0.281-0.026-0.388-0.071-0.449-0.106l-0.947 1.612c0.39 0.23 0.8 0.317 1.222 0.356 0.403 0.038 0.896 0.038 1.466 0.038v-1.871zM7.792 26.666c0 0.666 0 1.215 0.031 1.658 0.032 0.454 0.102 0.874 0.278 1.276l1.712-0.756c-0.052-0.116-0.099-0.295-0.124-0.65-0.026-0.364-0.026-0.835-0.026-1.527h-1.871zM10.348 29.475c-0.238-0.15-0.423-0.366-0.532-0.622l-0.003-0.009-1.712 0.756c0.273 0.618 0.721 1.146 1.3 1.487l0.947-1.612zM26.701 26.668c0 0.691 0 1.162-0.026 1.526-0.025 0.355-0.071 0.532-0.122 0.65l1.711 0.756c0.176-0.401 0.244-0.823 0.276-1.276 0.032-0.444 0.032-0.992 0.032-1.658h-1.871zM24.275 31.481c0.57 0 1.062 0 1.468-0.038 0.42-0.039 0.831-0.127 1.222-0.356l-0.948-1.612c-0.061 0.035-0.169 0.080-0.449 0.106-0.297 0.029-0.685 0.029-1.292 0.029v1.871zM26.553 28.844c-0.113 0.265-0.299 0.481-0.532 0.628l-0.006 0.003 0.948 1.612c0.579-0.34 1.027-0.868 1.3-1.487l-1.712-0.756zM24.275 2.39c0.607 0 0.995 0 1.292 0.029 0.281 0.026 0.388 0.071 0.448 0.106l0.948-1.613c-0.39-0.228-0.8-0.316-1.222-0.355-0.403-0.039-0.896-0.038-1.466-0.038v1.871zM28.572 5.334c0-0.666 0-1.213-0.031-1.658-0.033-0.454-0.102-0.874-0.278-1.276l-1.712 0.756c0.052 0.116 0.099 0.295 0.124 0.65 0.026 0.364 0.026 0.835 0.026 1.527h1.871zM26.015 2.525c0.212 0.124 0.407 0.337 0.538 0.631l1.711-0.756c-0.275-0.628-0.724-1.138-1.286-1.48l-0.014-0.008-0.947 1.613zM9.663 5.332c0-0.691 0-1.162 0.026-1.526 0.025-0.355 0.071-0.532 0.124-0.65l-1.712-0.756c-0.176 0.401-0.246 0.822-0.276 1.276-0.032 0.444-0.032 0.992-0.032 1.658h1.871zM12.087 0.521c-0.57 0-1.062 0-1.468 0.038-0.42 0.039-0.831 0.127-1.222 0.355l0.948 1.613c0.061-0.035 0.169-0.080 0.449-0.106 0.295-0.029 0.685-0.029 1.292-0.029v-1.872zM9.812 3.156c0.112-0.265 0.297-0.481 0.53-0.628l0.006-0.003-0.947-1.613c-0.576 0.35-1.025 0.86-1.292 1.467l-0.008 0.021 1.712 0.756zM15.111 21.046l4.067-3.815-1.28-1.364-4.067 3.815 1.28 1.364zM19.178 14.769l-4.067-3.815-1.28 1.364 4.067 3.815 1.28-1.364zM19.178 17.231c0.092-0.086 0.201-0.188 0.288-0.285 0.129-0.137 0.231-0.3 0.298-0.48l0.003-0.010-1.767-0.611c0.039-0.116 0.099-0.173 0.080-0.153-0.057 0.056-0.116 0.113-0.176 0.169l-0.006 0.005 1.28 1.364zM17.898 16.134c0.066 0.061 0.125 0.118 0.183 0.176l-0.001-0.001c0.019 0.020-0.039-0.038-0.080-0.153l1.767-0.611c-0.070-0.19-0.172-0.353-0.302-0.491l0.001 0.001c-0.087-0.097-0.196-0.199-0.288-0.285l-1.28 1.364zM19.767 16.455c0.049-0.136 0.077-0.292 0.077-0.455s-0.028-0.32-0.080-0.465l0.003 0.010-1.767 0.611c-0.017-0.046-0.026-0.1-0.026-0.156s0.010-0.109 0.027-0.159l-0.001 0.003 1.767 0.611zM18.607 15.065h-18.607v1.871h18.607v-1.871z"></path>
</svg>
<svg id="icon-upload" width="32" height="32" viewBox="0 0 32 32" x="144" y="0">
<path fill="none" stroke="#94a3b8" stroke-linejoin="round" stroke-linecap="square" stroke-miterlimit="4" stroke-width="2.4" d="M10.75 10.25l5.25-5.25 5.25 5.25"></path>
<path fill="#94a3b8" d="M14.8 19v1.2h2.4v-1.2h-2.4zM17.2 5c0-0.663-0.537-1.2-1.2-1.2s-1.2 0.537-1.2 1.2v0h2.4zM17.2 19v-14h-2.4v14h2.4z"></path>
<path fill="none" stroke="#94a3b8" stroke-linejoin="round" stroke-linecap="square" stroke-miterlimit="4" stroke-width="2.4" d="M27 19v7c0 0 0 0.001 0 0.002 0 0.551-0.447 0.998-0.998 0.998-0.001 0-0.001 0-0.002 0h-20c-0.552 0-1-0.448-1-1v0-7"></path>
</svg>
<svg id="icon-checkInCircle" width="32" height="32" viewBox="0 0 32 32" x="192" y="0">
<path fill="none" stroke="#2eba77" stroke-linejoin="round" stroke-linecap="round" stroke-miterlimit="4" stroke-width="2.4615" d="M11.385 16l3.077 3.077 6.154-6.154M29.846 16c0 7.647-6.199 13.846-13.846 13.846s-13.846-6.199-13.846-13.846 6.199-13.846 13.846-13.846 13.846 6.199 13.846 13.846z"></path>
</svg>
<svg id="icon-check" width="38" height="32" viewBox="0 0 38 32" x="240" y="0">
<path fill="none" stroke-linejoin="round" stroke-linecap="round" stroke-miterlimit="4" stroke-width="6.4" stroke="#000" d="M4.266 18.134l8.534 8.534 21.334-21.334"></path>
</svg>
<svg id="icon-diagonalLines" width="14" height="32" viewBox="0 0 14 32" x="288" y="0">
<path fill="none" stroke="#fff" stroke-linejoin="miter" stroke-linecap="butt" stroke-miterlimit="4" stroke-width="1.6" d="M1.156 8.934l12-8M1.156 14.534l12-8M1.156 20.134l12-8M1.156 25.734l12-8M1.156 31.334l12-8"></path>
</svg>
<symbol id="icon-npLogo" viewBox="0 0 32 32">
<path fill="#da291c" style="fill: var(--color5, #da291c)" d="M18.586 25.661v-6.389h-5.473v6.389h-4.186l5.076 5.037c0.474 0.469 1.126 0.759 1.846 0.759s1.372-0.29 1.846-0.759l-0 0 5.076-5.037h-4.184zM6.191 22.946v-13.739l-5.076 5.037c-0.472 0.467-0.765 1.115-0.765 1.831s0.293 1.364 0.765 1.831l0 0 5.076 5.037zM13.113 6.493v6.389h5.473v-6.389h4.185l-5.076-5.037c-0.474-0.469-1.126-0.759-1.846-0.759s-1.372 0.29-1.846 0.759l0-0-5.076 5.037h4.184zM30.583 14.246l-5.076-5.037v13.738l5.076-5.038c0.472-0.467 0.765-1.115 0.765-1.831s-0.293-1.364-0.765-1.831l-0-0z"></path>
</symbol>
</svg>
