<?xml version="1.0" encoding="utf-8"?>
<!-- Generated by IcoMoon.io -->
<svg version="1.1" xmlns="http://www.w3.org/2000/svg" xmlns:xlink="http://www.w3.org/1999/xlink" width="752" height="100" viewBox="0 0 752 32">
    <svg id="icon-close" width="24" height="24" viewBox="0 0 32 32" x="0" y="0"><path fill="none" stroke-linejoin="round" stroke-linecap="square" stroke-miterlimit="4" stroke-width="3" stroke="#000" d="M28 4l-24 24M4 4l24 24"></path></svg>
    <svg id="icon-entrance" width="24" height="24" fill="none"><path fill="#475569" d="m8.789 21.818.325-.554-.325.554Zm-.632-.728-.588.26.588-.26Zm12.686 0-.588-.26.588.26Zm-.632.728-.325-.554.325.554Zm0-19.636.326-.555-.326.555Zm.632.728-.588.26.588-.26Zm-12.686 0-.588-.26.588.26Zm.632-.728-.326-.555.326.555Zm5.956 10.195-.44-.469.44.47Zm0-.754.44-.469-.44.469Zm.238.48.607.21-.607-.21Zm0-.206.607-.21-.607.21Zm-6.34-5.73v-1.5H7.357v1.5h1.286Zm1.668-3.524h8.378V1.357H10.31v1.286Zm10.046 2.024v14.666h1.286V4.667h-1.286Zm-1.668 16.69H10.31v1.286h8.378v-1.286ZM8.643 19.333v-1.5H7.357v1.5h1.286Zm1.668 2.024c-.417 0-.685 0-.888-.02-.193-.018-.267-.049-.309-.073l-.651 1.108c.268.158.55.218.84.245.277.026.616.026 1.008.026v-1.286Zm-2.954-2.024c0 .458 0 .835.021 1.14.022.312.07.601.191.877l1.177-.52c-.036-.08-.068-.203-.085-.447-.018-.25-.018-.574-.018-1.05H7.357Zm1.757 1.931a.933.933 0 0 1-.368-.434l-1.177.52c.188.425.496.788.894 1.022l.651-1.108Zm11.243-1.93c0 .475 0 .799-.018 1.049-.017.244-.049.366-.084.447l1.176.52c.121-.276.168-.566.19-.877.022-.305.022-.682.022-1.14h-1.286Zm-1.668 3.309c.392 0 .73 0 1.009-.026.289-.027.571-.087.84-.245l-.652-1.108c-.042.024-.116.055-.309.073-.204.02-.471.02-.888.02v1.286Zm1.566-1.813a.933.933 0 0 1-.37.434l.652 1.108c.398-.234.706-.597.894-1.022l-1.177-.52ZM18.689 2.643c.417 0 .684 0 .888.02.193.018.267.049.308.073l.652-1.109c-.268-.157-.55-.217-.84-.244-.277-.027-.616-.026-1.008-.026v1.286Zm2.954 2.024c0-.458 0-.834-.021-1.14-.023-.312-.07-.601-.191-.877l-1.177.52c.036.08.068.203.085.447.018.25.018.574.018 1.05h1.286Zm-1.758-1.931c.146.085.28.232.37.434l1.176-.52a2.215 2.215 0 0 0-.894-1.023l-.651 1.109ZM8.643 4.666c0-.475 0-.799.018-1.049.017-.244.049-.366.085-.447l-1.177-.52c-.121.276-.169.565-.19.877-.022.305-.022.682-.022 1.14h1.286Zm1.668-3.309c-.392 0-.73 0-1.009.026-.289.027-.571.087-.84.244l.652 1.109c.042-.024.116-.055.309-.073.203-.02.471-.02.888-.02V1.357ZM8.746 3.17a.933.933 0 0 1 .368-.434l-.651-1.109a2.216 2.216 0 0 0-.894 1.023l1.177.52Zm3.643 12.299 2.796-2.623-.88-.938-2.796 2.623.88.938Zm2.796-4.315-2.796-2.623-.88.938 2.796 2.623.88-.938Zm0 1.692c.063-.059.138-.129.198-.196a.98.98 0 0 0 .207-.337l-1.215-.42c.027-.08.068-.119.055-.105a7.357 7.357 0 0 1-.125.12l.88.938Zm-.88-.754a7.357 7.357 0 0 1 .125.12c.013.014-.027-.026-.055-.105l1.215-.42a.98.98 0 0 0-.207-.337c-.06-.067-.135-.137-.198-.196l-.88.938Zm1.285.221a.957.957 0 0 0 0-.626l-1.215.42a.328.328 0 0 1 0-.214l1.215.42Zm-.798-.956H2v1.286h12.792v-1.286Z"/></svg>    <svg id="icon-exit" width="29" height="32" viewBox="0 0 29 32" x="48" y="0"><path fill="#475569" d="M9.875 30.281v0zM8.956 29.222v0zM27.408 29.222v0zM26.489 30.281v0zM26.489 1.719v0zM27.408 2.778v0zM8.956 2.778v0zM9.875 1.719v0zM18.538 16.548l-0.64-0.682 0.64 0.684zM18.538 15.452v0zM18.884 16.15v0zM18.884 15.85v0zM9.663 7.516v-2.182h-1.871v2.182h1.871zM12.087 2.39h12.186v-1.871h-12.186v1.871zM26.7 5.334v21.332h1.871v-21.332h-1.871zM24.273 29.61h-12.186v1.871h12.186v-1.871zM9.663 26.666v-2.182h-1.871v2.182h1.871zM12.089 29.61c-0.607 0-0.996 0-1.292-0.029-0.281-0.026-0.388-0.071-0.449-0.106l-0.947 1.612c0.39 0.23 0.8 0.317 1.222 0.356 0.403 0.038 0.896 0.038 1.466 0.038v-1.871zM7.792 26.666c0 0.666 0 1.215 0.031 1.658 0.032 0.454 0.102 0.874 0.278 1.276l1.712-0.756c-0.052-0.116-0.099-0.295-0.124-0.65-0.026-0.364-0.026-0.835-0.026-1.527h-1.871zM10.348 29.475c-0.238-0.15-0.423-0.366-0.532-0.622l-0.003-0.009-1.712 0.756c0.273 0.618 0.721 1.146 1.3 1.487l0.947-1.612zM26.701 26.668c0 0.691 0 1.162-0.026 1.526-0.025 0.355-0.071 0.532-0.122 0.65l1.711 0.756c0.176-0.401 0.244-0.823 0.276-1.276 0.032-0.444 0.032-0.992 0.032-1.658h-1.871zM24.275 31.481c0.57 0 1.062 0 1.468-0.038 0.42-0.039 0.831-0.127 1.222-0.356l-0.948-1.612c-0.061 0.035-0.169 0.080-0.449 0.106-0.297 0.029-0.685 0.029-1.292 0.029v1.871zM26.553 28.844c-0.113 0.265-0.299 0.481-0.532 0.628l-0.006 0.003 0.948 1.612c0.579-0.34 1.027-0.868 1.3-1.487l-1.712-0.756zM24.275 2.39c0.607 0 0.995 0 1.292 0.029 0.281 0.026 0.388 0.071 0.448 0.106l0.948-1.613c-0.39-0.228-0.8-0.316-1.222-0.355-0.403-0.039-0.896-0.038-1.466-0.038v1.871zM28.572 5.334c0-0.666 0-1.213-0.031-1.658-0.033-0.454-0.102-0.874-0.278-1.276l-1.712 0.756c0.052 0.116 0.099 0.295 0.124 0.65 0.026 0.364 0.026 0.835 0.026 1.527h1.871zM26.015 2.525c0.212 0.124 0.407 0.337 0.538 0.631l1.711-0.756c-0.275-0.628-0.724-1.138-1.286-1.48l-0.014-0.008-0.947 1.613zM9.663 5.332c0-0.691 0-1.162 0.026-1.526 0.025-0.355 0.071-0.532 0.124-0.65l-1.712-0.756c-0.176 0.401-0.246 0.822-0.276 1.276-0.032 0.444-0.032 0.992-0.032 1.658h1.871zM12.087 0.521c-0.57 0-1.062 0-1.468 0.038-0.42 0.039-0.831 0.127-1.222 0.355l0.948 1.613c0.061-0.035 0.169-0.080 0.449-0.106 0.295-0.029 0.685-0.029 1.292-0.029v-1.872zM9.812 3.156c0.112-0.265 0.297-0.481 0.53-0.628l0.006-0.003-0.947-1.613c-0.576 0.35-1.025 0.86-1.292 1.467l-0.008 0.021 1.712 0.756zM15.111 21.046l4.067-3.815-1.28-1.364-4.067 3.815 1.28 1.364zM19.178 14.769l-4.067-3.815-1.28 1.364 4.067 3.815 1.28-1.364zM19.178 17.231c0.092-0.086 0.201-0.188 0.288-0.285 0.129-0.137 0.231-0.3 0.298-0.48l0.003-0.010-1.767-0.611c0.039-0.116 0.099-0.173 0.080-0.153-0.057 0.056-0.116 0.113-0.176 0.169l-0.006 0.005 1.28 1.364zM17.898 16.134c0.066 0.061 0.125 0.118 0.183 0.176l-0.001-0.001c0.019 0.020-0.039-0.038-0.080-0.153l1.767-0.611c-0.070-0.19-0.172-0.353-0.302-0.491l0.001 0.001c-0.087-0.097-0.196-0.199-0.288-0.285l-1.28 1.364zM19.767 16.455c0.049-0.136 0.077-0.292 0.077-0.455s-0.028-0.32-0.080-0.465l0.003 0.010-1.767 0.611c-0.017-0.046-0.026-0.1-0.026-0.156s0.010-0.109 0.027-0.159l-0.001 0.003 1.767 0.611zM18.607 15.065h-18.607v1.871h18.607v-1.871z"></path></svg>
    <svg id="icon-exit" width="24" height="24" fill="none"><path fill="#475569" d="m15.211 21.819-.325-.555.325.555Zm.632-.729.588.26-.588-.26Zm-12.686 0 .589-.26-.589.26Zm.632.729.325-.555-.325.555Zm0-19.637-.326-.554.326.554Zm-.632.728.589.26-.589-.26Zm12.686 0 .588-.26-.588.26Zm-.632-.728.326-.554-.326.554Zm6.534 10.195-.44-.469.44.47Zm0-.754.44-.469-.44.47Zm.238.48.607.21-.607-.21Zm0-.206.607-.21-.607.21Zm-5.34-5.73v-1.5h-1.286v1.5h1.286Zm-2.954-4.81H5.31v1.286h8.378V1.357ZM2.357 4.667v14.667h1.286V4.667H2.357Zm2.954 17.976h8.378v-1.286H5.31v1.286Zm11.332-3.31v-1.5h-1.286v1.5h1.286Zm-2.954 3.31c.392 0 .73 0 1.009-.025.289-.028.571-.088.84-.245l-.652-1.109c-.042.025-.116.055-.309.073-.204.02-.471.02-.888.02v1.286Zm1.668-3.31c0 .477 0 .8-.018 1.05-.017.245-.049.367-.085.448l1.177.519c.121-.276.168-.565.19-.876.022-.306.022-.683.022-1.14h-1.286Zm.18 3.04c.398-.234.706-.598.894-1.023l-1.177-.52a.933.933 0 0 1-.368.434l.651 1.109Zm-13.18-3.04c0 .458 0 .835.021 1.14.022.312.07.602.191.877l1.177-.52c-.036-.08-.068-.202-.085-.447-.018-.25-.018-.573-.018-1.05H2.357Zm2.954 2.024c-.417 0-.685 0-.888-.02-.193-.018-.267-.048-.309-.073l-.651 1.109c.268.157.55.217.84.245.277.026.616.025 1.008.025v-1.286ZM2.57 21.35c.188.425.496.789.894 1.023l.651-1.109a.932.932 0 0 1-.368-.433l-1.177.519ZM5.311 1.357c-.392 0-.73 0-1.009.026-.289.027-.571.087-.84.245l.652 1.108c.042-.024.116-.055.309-.073.203-.02.471-.02.888-.02V1.357Zm-1.668 3.31c0-.476 0-.8.018-1.05.017-.244.049-.366.085-.447l-1.177-.52c-.121.276-.169.566-.19.877-.022.306-.022.682-.022 1.14h1.286Zm-.18-3.04a2.216 2.216 0 0 0-.894 1.024l1.177.519a.933.933 0 0 1 .368-.434l-.651-1.108Zm13.18 3.04c0-.458 0-.834-.021-1.14-.023-.311-.07-.601-.191-.876l-1.177.519c.036.081.068.203.085.448.018.25.018.573.018 1.049h1.286Zm-2.954-2.024c.417 0 .684 0 .888.02.193.018.267.049.309.073l.651-1.108c-.268-.158-.55-.218-.84-.245-.277-.026-.616-.026-1.008-.026v1.286Zm2.742.008a2.215 2.215 0 0 0-.894-1.023l-.652 1.108c.146.086.28.232.37.434l1.176-.52Zm2.958 12.818 2.796-2.623-.88-.938-2.796 2.623.88.938Zm2.796-4.315-2.796-2.623-.88.938 2.796 2.623.88-.938Zm0 1.692c.063-.058.138-.129.198-.195a.978.978 0 0 0 .207-.337l-1.215-.421c.027-.08.067-.119.055-.105a.907.907 0 0 1-.04.04l-.085.08.88.938Zm-.88-.754c.037.034.063.06.086.08a.907.907 0 0 1 .04.04c.011.014-.029-.025-.056-.104l1.215-.421a.978.978 0 0 0-.207-.337c-.06-.067-.136-.137-.198-.196l-.88.938Zm1.285.222a.957.957 0 0 0 0-.627l-1.215.42a.328.328 0 0 1 0-.214l1.215.42Zm-.798-.957H9v1.286h12.792v-1.286Z"/></svg>    <svg id="icon-upload" width="32" height="32" viewBox="0 0 32 32" x="96" y="0"><path fill="none" stroke="#94a3b8" stroke-linejoin="round" stroke-linecap="square" stroke-miterlimit="4" stroke-width="2.4" d="M10.75 10.25l5.25-5.25 5.25 5.25"></path><path fill="#94a3b8" d="M14.8 19v1.2h2.4v-1.2h-2.4zM17.2 5c0-0.663-0.537-1.2-1.2-1.2s-1.2 0.537-1.2 1.2v0h2.4zM17.2 19v-14h-2.4v14h2.4z"></path><path fill="none" stroke="#94a3b8" stroke-linejoin="round" stroke-linecap="square" stroke-miterlimit="4" stroke-width="2.4" d="M27 19v7c0 0 0 0.001 0 0.002 0 0.551-0.447 0.998-0.998 0.998-0.001 0-0.001 0-0.002 0h-20c-0.552 0-1-0.448-1-1v0-7"></path></svg>
    <svg id="icon-check" width="10" height="7" viewBox="0 0 38 32" x="5" y="7"><path fill="none" stroke-linejoin="round" stroke-linecap="round" stroke-miterlimit="4" stroke-width="6.4" stroke="#000" d="M4.266 18.134l8.534 8.534 21.334-21.334"></path></svg>
    <svg id="icon-geo" width="36" height="36" fill="none"><path fill="#000" d="m29.733 13.1.74.125v-.001l-.74-.123Zm-5.059 7.019-.406-.63-.01.005-.008.007.424.618Zm-.738.229v-.75.75Zm-.738-.23-.439.609.007.005.007.005.425-.618Zm-5.18-8.39h-.75.75Zm6.19-5.93-.031.749h.012l.02-.75Zm4.668 13.244c0 6.213-5.037 11.25-11.25 11.25v1.5c7.042 0 12.75-5.709 12.75-12.75h-1.5Zm-11.25 11.25c-6.213 0-11.25-5.037-11.25-11.25h-1.5c0 7.041 5.708 12.75 12.75 12.75v-1.5Zm-11.25-11.25c0-6.214 5.037-11.25 11.25-11.25v-1.5c-7.042 0-12.75 5.708-12.75 12.75h1.5Zm11.248 11.25c-.492 0-1.017-.222-1.559-.737-.545-.518-1.07-1.304-1.527-2.333-.913-2.055-1.497-4.946-1.497-8.18h-1.5c0 3.393.61 6.502 1.627 8.79.508 1.143 1.132 2.114 1.863 2.81.735.7 1.613 1.15 2.593 1.15v-1.5Zm-4.583-11.25c0-3.234.584-6.126 1.498-8.181.457-1.028.982-1.814 1.526-2.333.541-.515 1.067-.736 1.56-.736v-1.5c-.981 0-1.859.45-2.594 1.15-.73.695-1.355 1.667-1.863 2.81-1.017 2.288-1.627 5.396-1.627 8.79h1.5Zm9.038 2.591c-.262 2.603-.908 4.832-1.762 6.385-.876 1.593-1.846 2.274-2.693 2.274v1.5c1.692 0 3.053-1.314 4.008-3.052.977-1.777 1.663-4.216 1.94-6.956l-1.493-.15ZM5.7 19.792h11.964v-1.5H5.7v1.5Zm23.293-6.816c-.575 3.413-3.336 5.617-4.725 6.512l.813 1.261c1.477-.952 4.707-3.461 5.392-7.524l-1.48-.25ZM24.25 19.5a.554.554 0 0 1-.314.097v1.5c.415 0 .82-.126 1.163-.361l-.85-1.236Zm-.314.097a.554.554 0 0 1-.313-.097l-.85 1.236c.343.235.748.36 1.163.36v-1.5Zm-.3-.087c-.755-.546-1.987-1.552-3.024-2.907-1.039-1.357-1.843-3.013-1.843-4.876h-1.5c0 2.306.995 4.276 2.151 5.787 1.158 1.513 2.515 2.617 3.34 3.212l.877-1.216Zm-4.867-7.783c0-.7.142-1.392.417-2.035l-1.38-.59a6.688 6.688 0 0 0-.538 2.624l1.5.001Zm.417-2.035a5.189 5.189 0 0 1 1.182-1.709L19.33 6.901a6.688 6.688 0 0 0-1.524 2.203l1.38.589Zm1.182-1.709a5.188 5.188 0 0 1 1.757-1.108l-.53-1.403a6.689 6.689 0 0 0-2.265 1.428l1.038 1.083Zm1.757-1.108a5.19 5.19 0 0 1 2.052-.33l.063-1.498a6.689 6.689 0 0 0-2.644.425l.53 1.403Zm2.064-.329c3.097.081 5.348 3.17 4.804 6.43l1.48.247c.665-3.991-2.074-8.067-6.245-8.176l-.04 1.499ZM22.421 9.5h3v3h-3z"/></svg>
    <svg id="icon-diagonalLines" width="17" height="40" fill="none"><path stroke="#fff" stroke-width="2" d="m1.445 11.168 15-10M1.445 18.168l15-10M1.445 25.168l15-10M1.445 32.168l15-10M1.445 39.168l15-10"/></svg>
    <svg id="npLogo" width="155" height="29" fill="none"><path fill="#DA291C" d="M16.844 23.255v-5.79h-4.96v5.79H8.09l4.6 4.565a2.377 2.377 0 0 0 3.345 0l4.6-4.565h-3.792Zm-11.233-2.46V8.344l-4.6 4.565a2.333 2.333 0 0 0 0 3.319l4.6 4.565Zm6.273-14.911v5.79h4.96v-5.79h3.793l-4.6-4.565a2.377 2.377 0 0 0-3.345 0l-4.6 4.565h3.792Zm15.832 7.026-4.6-4.565v12.45l4.6-4.566a2.333 2.333 0 0 0 0-3.319ZM42.203 23.256c-4.356 0-7.26-1.964-8.029-5.423h4.143c.512 1.324 1.836 2.007 3.971 2.007 2.178 0 3.502-.769 3.502-1.794 0-1.238-1.025-1.665-4.185-2.007-4.698-.512-6.876-2.306-6.876-5.295 0-3.032 2.947-5.082 7.218-5.082 4.355 0 7.302 2.05 7.857 5.253h-4.441c-.47-1.11-1.708-1.751-3.46-1.751-2.134 0-3.245.64-3.245 1.665 0 1.11 1.025 1.537 3.886 1.794 4.869.47 7.26 2.178 7.26 5.338 0 3.203-3.16 5.295-7.601 5.295ZM52.563 23V5.491h3.587v6.021h.257c.811-.939 2.22-1.537 3.544-1.537 3.16 0 5.21 2.22 5.21 5.594V23h-3.63v-6.662c0-1.879-.982-2.947-2.605-2.947-1.58 0-2.776 1.282-2.776 2.947V23h-3.587Zm21.934.256c-3.971 0-6.918-2.861-6.918-6.662 0-3.8 2.947-6.662 6.918-6.662 3.972 0 6.961 2.862 6.961 6.662 0 3.801-2.99 6.662-6.96 6.662Zm-3.288-6.662c0 1.837 1.452 3.246 3.288 3.203 1.837.043 3.288-1.366 3.288-3.203 0-1.836-1.451-3.245-3.288-3.245-1.836 0-3.288 1.409-3.288 3.245Zm12.96 11.104v-17.51h3.417v1.324h.256c.897-.939 2.349-1.537 3.758-1.537 3.587 0 6.107 2.819 6.107 6.62 0 3.8-2.52 6.619-6.107 6.619-1.324 0-2.733-.598-3.587-1.495h-.257v5.979H84.17Zm3.46-11.104c0 1.922 1.408 3.331 3.202 3.331 1.836 0 3.246-1.452 3.246-3.33 0-1.88-1.41-3.332-3.246-3.332-1.794 0-3.203 1.41-3.203 3.331Zm12.777 11.104v-17.51h3.416v1.324h.256c.897-.939 2.349-1.537 3.758-1.537 3.588 0 6.107 2.819 6.107 6.62 0 3.8-2.519 6.619-6.107 6.619-1.323 0-2.733-.598-3.587-1.495h-.256v5.979h-3.587Zm3.459-11.104c0 1.922 1.409 3.331 3.203 3.331 1.836 0 3.245-1.452 3.245-3.33 0-1.88-1.409-3.332-3.245-3.332-1.794 0-3.203 1.41-3.203 3.331ZM116.642 23V10.189h3.588V23h-3.588ZM116.6 8.01V4.68h3.672v3.33H116.6ZM123.926 23V10.189h3.416v1.323h.256c.854-.896 2.264-1.537 3.673-1.537 3.246 0 5.253 2.135 5.253 5.594V23h-3.63v-6.747c0-2.007-.897-2.947-2.477-2.947-1.58 0-2.904 1.324-2.904 2.947V23h-3.587Zm16.596 4.698v-3.16h7.644c.47 0 .726-.257.726-.727v-2.605h-.256c-.897.855-2.264 1.452-3.588 1.452-3.63 0-6.106-2.733-6.106-6.363 0-3.544 2.476-6.32 6.106-6.32 1.41 0 2.862.598 3.758 1.537h.257V10.19h3.416v14.348c0 1.922-1.238 3.16-3.16 3.16h-8.797Zm2.049-11.274c0 1.793 1.41 3.202 3.246 3.202 1.794 0 3.203-1.366 3.203-3.203 0-1.75-1.409-3.16-3.203-3.16-1.836 0-3.246 1.41-3.246 3.16Z"/></svg>
    <svg id="circleStep" width="49" height="46" fill="none"><circle cx="24.5" cy="23.004" r="22.25" fill="#fff" stroke="#DA291C" stroke-width=".5"/><circle cx="24.5" cy="23.004" r="19.5" fill="#DA291C"/><g filter="url(#a)"><circle cx="24.5" cy="23.004" r="14.5" fill="#fff"/></g><circle cx="47" cy="22.504" r="1.75" fill="#fff" stroke="#DA291C" stroke-width=".5"/><circle cx="2" cy="22.504" r="1.75" fill="#fff" stroke="#DA291C" stroke-width=".5"/><defs><filter id="a" width="31.266" height="32.022" x="8.867" y="8.504" color-interpolation-filters="sRGB" filterUnits="userSpaceOnUse"><feFlood flood-opacity="0" result="BackgroundImageFix"/><feColorMatrix in="SourceAlpha" result="hardAlpha" values="0 0 0 0 0 0 0 0 0 0 0 0 0 0 0 0 0 0 127 0"/><feOffset dy="1.889"/><feGaussianBlur stdDeviation=".567"/><feComposite in2="hardAlpha" operator="out"/><feColorMatrix values="0 0 0 0 0 0 0 0 0 0 0 0 0 0 0 0 0 0 0.25 0"/><feBlend in2="BackgroundImageFix" result="effect1_dropShadow_1423_2075"/><feBlend in="SourceGraphic" in2="effect1_dropShadow_1423_2075" result="shape"/></filter></defs></svg>
    <svg id="circleStepGrey" width="49" height="45" fill="none"><circle cx="24.5" cy="22.492" r="22.25" fill="#fff" stroke="#E2E8F0" stroke-width=".5"/><circle cx="24.5" cy="22.492" r="19.5" fill="#E2E8F0"/><g filter="url(#a)"><circle cx="24.5" cy="22.492" r="14.5" fill="#fff"/></g><circle cx="47" cy="21.992" r="1.717" fill="#fff" stroke="#E2E8F0" stroke-width=".567"/><circle cx="2" cy="21.992" r="1.717" fill="#fff" stroke="#E2E8F0" stroke-width=".567"/><defs><filter id="a" width="31.266" height="32.022" x="8.867" y="7.992" color-interpolation-filters="sRGB" filterUnits="userSpaceOnUse"><feFlood flood-opacity="0" result="BackgroundImageFix"/><feColorMatrix in="SourceAlpha" result="hardAlpha" values="0 0 0 0 0 0 0 0 0 0 0 0 0 0 0 0 0 0 127 0"/><feOffset dy="1.889"/><feGaussianBlur stdDeviation=".567"/><feComposite in2="hardAlpha" operator="out"/><feColorMatrix values="0 0 0 0 0 0 0 0 0 0 0 0 0 0 0 0 0 0 0.25 0"/><feBlend in2="BackgroundImageFix" result="effect1_dropShadow_1423_2637"/><feBlend in="SourceGraphic" in2="effect1_dropShadow_1423_2637" result="shape"/></filter></defs></svg>
    <symbol id="icon-closeEye" viewBox="0 0 33 32"><path fill="none" stroke="#94a3b8" style="stroke: var(--color1, #94a3b8)" stroke-linejoin="round" stroke-linecap="round" stroke-miterlimit="4" stroke-width="2" d="M13.836 13.173c-0.799 0.734-1.298 1.784-1.298 2.95 0 2.21 1.791 4.001 4.001 4.001 1.166 0 2.216-0.499 2.948-1.295l0.003-0.003M14.969 6.773c0.561-0.069 1.127-0.107 1.693-0.107 9.333 0 13.333 9.333 13.333 9.333-0.643 1.362-1.386 2.536-2.253 3.606l0.026-0.033"></path><path fill="none" stroke="#94a3b8" style="stroke: var(--color1, #94a3b8)" stroke-linejoin="round" stroke-linecap="round" stroke-miterlimit="4" stroke-width="2" d="M9.48 8.813c-2.637 1.813-4.73 4.239-6.1 7.079l-0.047 0.108s4 9.333 13.333 9.333c0.010 0 0.023 0 0.035 0 2.663 0 5.139-0.802 7.199-2.176l-0.047 0.030M3.333 2.667l26.667 26.667"></path></symbol>
    <symbol id="icon-openEye" viewBox="0 0 32 32"><path fill="none" stroke="#94a3b8" style="stroke: var(--color1, #94a3b8)" stroke-linejoin="round" stroke-linecap="round" stroke-miterlimit="4" stroke-width="2" d="M14.303 6.773c0.56-0.069 1.127-0.107 1.693-0.107 9.333 0 13.333 9.333 13.333 9.333-0.643 1.362-1.386 2.536-2.253 3.606l0.026-0.033M8.813 8.813c-2.637 1.813-4.73 4.239-6.1 7.079l-0.047 0.108s4 9.333 13.333 9.333c0.010 0 0.023 0 0.035 0 2.663 0 5.139-0.802 7.199-2.176l-0.047 0.030"></path><path fill="#94a3b8" style="fill: var(--color1, #94a3b8)" d="M20.667 16c0 2.946-2.388 5.333-5.333 5.333s-5.333-2.388-5.333-5.333c0-2.946 2.388-5.333 5.333-5.333s5.333 2.388 5.333 5.333z"></path></symbol>
    <symbol id="icon-copy" viewBox="0 0 32 32"><path fill="none" stroke="#475569" style="stroke: var(--color1, #475569)" stroke-linejoin="round" stroke-linecap="butt" stroke-miterlimit="4" stroke-width="2" d="M26.667 12h-12c-1.473 0-2.667 1.194-2.667 2.667v0 12c0 1.473 1.194 2.667 2.667 2.667v0h12c1.473 0 2.667-1.194 2.667-2.667v0-12c0-1.473-1.194-2.667-2.667-2.667v0z"></path><path fill="none" stroke="#475569" style="stroke: var(--color1, #475569)" stroke-linejoin="round" stroke-linecap="butt" stroke-miterlimit="4" stroke-width="2" d="M8 20h-2.667c-1.473 0-2.667-1.194-2.667-2.667v0-12c0-1.473 1.194-2.667 2.667-2.667v0h12c1.473 0 2.667 1.194 2.667 2.667v0 2.667"></path></symbol>
    <svg id="icon-infoCompany" width="25" height="24" fill="none"><path fill="#DA291C" d="M17.5 11a6 6 0 1 0 6 6 6.007 6.007 0 0 0-6-6Zm0 11.333a5.333 5.333 0 1 1 0-10.666 5.333 5.333 0 0 1 0 10.666Z"/><path fill="#DA291C" d="M17.5 16a1.334 1.334 0 1 0 0-2.667 1.334 1.334 0 0 0 0 2.667Zm0-2a.666.666 0 1 1 0 1.332.666.666 0 0 1 0-1.332ZM17.5 16.667A2.337 2.337 0 0 0 15.167 19v2.333a.333.333 0 1 0 .667 0V19a1.667 1.667 0 0 1 3.333 0v2.333a.333.333 0 1 0 .667 0V19a2.337 2.337 0 0 0-2.334-2.333Z"/><path fill="#DA291C" stroke="#DA291C" stroke-width=".2" d="M1.833 23h12a.333.333 0 1 0 0-.667h-4V1.667H22.5v10.666a.333.333 0 1 0 .667 0v-11A.333.333 0 0 0 22.833 1H9.5a.333.333 0 0 0-.333.333v8H3.5a.333.333 0 0 0-.333.334v1.666H1.833a.333.333 0 0 0-.333.334v11a.334.334 0 0 0 .333.333Zm2-13h5.334v1.333H3.833V10Zm-1.666 2h7v10.333h-7V12Z"/><path fill="#DA291C" d="M4.5 12.667H3.166a.333.333 0 0 0-.333.333v1.333a.333.333 0 0 0 .333.334H4.5a.33.33 0 0 0 .308-.206.333.333 0 0 0 .025-.128V13a.333.333 0 0 0-.333-.333ZM4.166 14H3.5v-.667h.666V14ZM7.834 12.667H6.5a.333.333 0 0 0-.333.333v1.333a.333.333 0 0 0 .333.334h1.334a.33.33 0 0 0 .308-.206.333.333 0 0 0 .025-.128V13a.333.333 0 0 0-.333-.333ZM7.5 14h-.666v-.667H7.5V14ZM4.5 15.333H3.166a.33.33 0 0 0-.308.206.333.333 0 0 0-.025.128V17a.333.333 0 0 0 .333.333H4.5A.333.333 0 0 0 4.833 17v-1.333a.333.333 0 0 0-.333-.334Zm-.334 1.334H3.5V16h.666v.667ZM7.834 15.333H6.5a.33.33 0 0 0-.308.206.333.333 0 0 0-.025.128V17a.333.333 0 0 0 .333.333h1.334A.333.333 0 0 0 8.167 17v-1.333a.333.333 0 0 0-.333-.334ZM7.5 16.667h-.666V16H7.5v.667ZM4.5 18H3.166a.334.334 0 0 0-.333.333v1.334a.334.334 0 0 0 .333.333H4.5a.334.334 0 0 0 .333-.333v-1.334A.334.334 0 0 0 4.5 18Zm-.334 1.333H3.5v-.666h.666v.666ZM7.834 18H6.5a.334.334 0 0 0-.333.333v1.334A.334.334 0 0 0 6.5 20h1.334a.334.334 0 0 0 .333-.333v-1.334A.334.334 0 0 0 7.834 18ZM7.5 19.333h-.666v-.666H7.5v.666ZM14.833 3.333a.33.33 0 0 0-.205-.308A.333.333 0 0 0 14.5 3h-2.667a.334.334 0 0 0-.333.333V6a.334.334 0 0 0 .333.333H14.5A.333.333 0 0 0 14.833 6V3.333Zm-.666 2.334h-2v-2h2v2ZM20.833 3.333a.33.33 0 0 0-.205-.308A.333.333 0 0 0 20.5 3h-2.667a.334.334 0 0 0-.333.333V6a.334.334 0 0 0 .333.333H20.5A.333.333 0 0 0 20.833 6V3.333Zm-.666 2.334h-2v-2h2v2ZM14.5 7.667h-2.667A.334.334 0 0 0 11.5 8v2.667a.334.334 0 0 0 .333.333H14.5a.335.335 0 0 0 .333-.333V8a.33.33 0 0 0-.205-.308.333.333 0 0 0-.128-.025Zm-.333 2.666h-2v-2h2v2ZM20.5 11a.335.335 0 0 0 .333-.333V8a.33.33 0 0 0-.205-.308.333.333 0 0 0-.128-.025h-2.667A.334.334 0 0 0 17.5 8v2a.333.333 0 1 0 .667 0V8.333h2v2.334a.33.33 0 0 0 .205.308c.04.017.084.025.128.025Z"/></svg>
</svg>
