<svg width="155" height="29" viewBox="0 0 155 29" fill="none" xmlns="http://www.w3.org/2000/svg">
<path d="M16.8442 23.2552V17.4647H11.8839V23.2552H8.09121L12.6917 27.8202C13.6159 28.7374 15.1136 28.7374 16.0364 27.8202L20.6368 23.2552H16.8442ZM5.61105 20.7941V8.34491L1.01059 12.91C0.0863144 13.8272 0.0863144 15.3133 1.01059 16.229L5.61105 20.7941ZM11.8839 5.88382V11.6743H16.8442V5.88382H20.6368L16.0364 1.31873C15.1121 0.401568 13.6145 0.401568 12.6917 1.31873L8.09121 5.88382H11.8839ZM27.716 12.91L23.1155 8.34491V20.7941L27.716 16.229C28.6403 15.3118 28.6403 13.8257 27.716 12.91Z" fill="#DA291C"/>
<path d="M42.2027 23.2562C46.644 23.2562 49.8041 21.1637 49.8041 17.9609C49.8041 14.8007 47.4127 13.0925 42.5443 12.6228C39.6831 12.3665 38.6582 11.9395 38.6582 10.8292C38.6582 9.80427 39.7685 9.1637 41.9038 9.1637C43.6546 9.1637 44.8931 9.80427 45.3628 10.9146H49.8041C49.249 7.71174 46.3023 5.66192 41.9465 5.66192C37.676 5.66192 34.7294 7.71174 34.7294 10.7438C34.7294 13.7331 36.9073 15.5267 41.6048 16.0391C44.765 16.3808 45.7899 16.8078 45.7899 18.0463C45.7899 19.0712 44.466 19.8399 42.2881 19.8399C40.1529 19.8399 38.829 19.1566 38.3166 17.8327H34.1742C34.9429 21.2918 37.8468 23.2562 42.2027 23.2562ZM52.5633 23H56.1505V16.3381C56.1505 14.6726 57.3462 13.3915 58.9263 13.3915C60.549 13.3915 61.5313 14.4591 61.5313 16.3381V23H65.1611V15.5694C65.1611 12.1957 63.1113 9.97509 59.9512 9.97509C58.6273 9.97509 57.2181 10.573 56.4067 11.5125H56.1505V5.4911H52.5633V23ZM74.4972 23.2562C78.4688 23.2562 81.4581 20.395 81.4581 16.5943C81.4581 12.7936 78.4688 9.93238 74.4972 9.93238C70.5257 9.93238 67.5791 12.7936 67.5791 16.5943C67.5791 20.395 70.5257 23.2562 74.4972 23.2562ZM71.209 16.5943C71.209 14.758 72.6609 13.3488 74.4972 13.3488C76.3335 13.3488 77.7855 14.758 77.7855 16.5943C77.7855 18.4306 76.3335 19.8399 74.4972 19.7972C72.6609 19.8399 71.209 18.4306 71.209 16.5943ZM84.1692 27.6975H87.7564V21.7189H88.0126C88.8667 22.6157 90.276 23.2135 91.5998 23.2135C95.187 23.2135 97.7066 20.395 97.7066 16.5943C97.7066 12.7936 95.187 9.97509 91.5998 9.97509C90.1906 9.97509 88.7386 10.573 87.8418 11.5125H87.5856V10.1886H84.1692V27.6975ZM87.6283 16.5943C87.6283 14.6726 89.0375 13.2633 90.8311 13.2633C92.6674 13.2633 94.0767 14.7153 94.0767 16.5943C94.0767 18.4733 92.6674 19.9253 90.8311 19.9253C89.0375 19.9253 87.6283 18.516 87.6283 16.5943ZM100.406 27.6975H103.993V21.7189H104.249C105.103 22.6157 106.513 23.2135 107.836 23.2135C111.424 23.2135 113.943 20.395 113.943 16.5943C113.943 12.7936 111.424 9.97509 107.836 9.97509C106.427 9.97509 104.975 10.573 104.078 11.5125H103.822V10.1886H100.406V27.6975ZM103.865 16.5943C103.865 14.6726 105.274 13.2633 107.068 13.2633C108.904 13.2633 110.313 14.7153 110.313 16.5943C110.313 18.4733 108.904 19.9253 107.068 19.9253C105.274 19.9253 103.865 18.516 103.865 16.5943ZM116.642 23H120.23V10.1886H116.642V23ZM116.6 8.01068H120.272V4.67972H116.6V8.01068ZM123.926 23H127.513V16.2527C127.513 14.6299 128.837 13.306 130.417 13.306C131.997 13.306 132.894 14.2456 132.894 16.2527V23H136.524V15.5694C136.524 12.1103 134.517 9.97509 131.271 9.97509C129.862 9.97509 128.452 10.6157 127.598 11.5125H127.342V10.1886H123.926V23ZM140.522 27.6975H149.319C151.241 27.6975 152.479 26.4591 152.479 24.5374V10.1886H149.063V11.5125H148.806C147.91 10.573 146.458 9.97509 145.048 9.97509C141.418 9.97509 138.942 12.7509 138.942 16.2954C138.942 19.9253 141.418 22.6584 145.048 22.6584C146.372 22.6584 147.739 22.0605 148.636 21.2064H148.892V23.8114C148.892 24.2811 148.636 24.5374 148.166 24.5374H140.522V27.6975ZM142.571 16.4235C142.571 14.6726 143.981 13.2633 145.817 13.2633C147.611 13.2633 149.02 14.6726 149.02 16.4235C149.02 18.2598 147.611 19.6263 145.817 19.6263C143.981 19.6263 142.571 18.2171 142.571 16.4235Z" fill="#DA291C"/>
</svg>
