<svg width="22" height="18" viewBox="0 0 22 18" fill="none" xmlns="http://www.w3.org/2000/svg">
<path d="M1.08268 10.6169C1.0066 10.5426 0.946166 10.4538 0.904961 10.3557C0.863756 10.2577 0.842611 10.1524 0.842774 10.046C0.842937 9.93966 0.864406 9.83442 0.905911 9.7365C0.947416 9.63858 1.00812 9.54996 1.08443 9.47589L10.3892 0.407387C10.5526 0.248114 10.7717 0.158972 10.9999 0.158972C11.2281 0.158972 11.4473 0.248114 11.6107 0.407387L20.9154 9.47589C20.9916 9.55008 21.0522 9.63879 21.0936 9.73677C21.1349 9.83476 21.1562 9.94003 21.1562 10.0464C21.1562 10.1527 21.1349 10.258 21.0936 10.356C21.0522 10.454 20.9916 10.5427 20.9154 10.6169C20.7592 10.7695 20.5494 10.855 20.3309 10.855C20.1125 10.855 19.9027 10.7695 19.7464 10.6169L10.9999 2.08914L2.24993 10.6169C2.09374 10.769 1.88433 10.8541 1.66631 10.8541C1.44828 10.8541 1.23887 10.769 1.08268 10.6169ZM1.08268 17.6169C1.0066 17.5426 0.946166 17.4538 0.904961 17.3557C0.863756 17.2577 0.842611 17.1524 0.842774 17.046C0.842937 16.9397 0.864406 16.8344 0.905911 16.7365C0.947416 16.6386 1.00812 16.55 1.08443 16.4759L10.3892 7.40739C10.5526 7.24811 10.7717 7.15897 10.9999 7.15897C11.2281 7.15897 11.4473 7.24811 11.6107 7.40739L20.9154 16.4759C20.9916 16.5501 21.0522 16.6388 21.0936 16.7368C21.1349 16.8348 21.1562 16.94 21.1562 17.0464C21.1562 17.1527 21.1349 17.258 21.0936 17.356C21.0522 17.454 20.9916 17.5427 20.9154 17.6169C20.7592 17.7695 20.5494 17.855 20.3309 17.855C20.1125 17.855 19.9027 17.7695 19.7464 17.6169L10.9999 9.08914L2.24993 17.6169C2.09374 17.769 1.88433 17.8541 1.66631 17.8541C1.44828 17.8541 1.23887 17.769 1.08268 17.6169Z" fill="#DA291C"/>
</svg>
